<svg xmlns="http://www.w3.org/2000/svg" viewBox="0 0 16 16">
  <rect x="5" y="0" width="1" height="1" fill="#a0522d"/>
  <rect x="7" y="0" width="1" height="1" fill="#a0522d"/>
  <rect x="9" y="0" width="1" height="1" fill="#a0522d"/>
  <rect x="5" y="1" width="1" height="1" fill="#a0522d"/>
  <rect x="7" y="1" width="1" height="1" fill="#a0522d"/>
  <rect x="9" y="1" width="1" height="1" fill="#a0522d"/>
  <rect x="3" y="3" width="8" height="1" fill="#6b3a2a"/>
  <rect x="3" y="4" width="8" height="5" fill="#c0714f"/>
  <rect x="4" y="4" width="6" height="2" fill="#3b1f0f"/>
  <rect x="4" y="9" width="6" height="1" fill="#6b3a2a"/>
  <rect x="2" y="10" width="10" height="1" fill="#6b3a2a"/>
  <rect x="3" y="11" width="8" height="1" fill="#a0522d"/>
  <rect x="11" y="5" width="1" height="1" fill="#6b3a2a"/>
  <rect x="12" y="5" width="1" height="2" fill="#6b3a2a"/>
  <rect x="11" y="7" width="1" height="1" fill="#6b3a2a"/>
</svg>
